<svg xmlns="http://www.w3.org/2000/svg" viewBox="0 0 500 500"><g id="freepik--background-complete--inject-105"><rect y="382.4" width="500" height="0.25" style="fill:#ebebeb"></rect><rect x="429.83" y="398.49" width="20.07" height="0.25" style="fill:#ebebeb"></rect><rect x="357.48" y="394.99" width="32.02" height="0.25" style="fill:#ebebeb"></rect><rect x="274.19" y="389.21" width="36.98" height="0.25" style="fill:#ebebeb"></rect><rect x="75.46" y="396.57" width="43.19" height="0.25" style="fill:#ebebeb"></rect><rect x="60.22" y="396.57" width="6.33" height="0.25" style="fill:#ebebeb"></rect><rect x="131.75" y="389.08" width="37.48" height="0.25" style="fill:#ebebeb"></rect><path d="M237,337.8H43.91a5.71,5.71,0,0,1-5.7-5.71V60.66A5.71,5.71,0,0,1,43.91,55H237a5.71,5.71,0,0,1,5.71,5.71V332.09A5.71,5.71,0,0,1,237,337.8ZM43.91,55.2a5.46,5.46,0,0,0-5.45,5.46V332.09a5.46,5.46,0,0,0,5.45,5.46H237a5.47,5.47,0,0,0,5.46-5.46V60.66A5.47,5.47,0,0,0,237,55.2Z" style="fill:#ebebeb"></path><path d="M453.31,337.8H260.21a5.72,5.72,0,0,1-5.71-5.71V60.66A5.72,5.72,0,0,1,260.21,55h193.1A5.71,5.71,0,0,1,459,60.66V332.09A5.71,5.71,0,0,1,453.31,337.8ZM260.21,55.2a5.47,5.47,0,0,0-5.46,5.46V332.09a5.47,5.47,0,0,0,5.46,5.46h193.1a5.47,5.47,0,0,0,5.46-5.46V60.66a5.47,5.47,0,0,0-5.46-5.46Z" style="fill:#ebebeb"></path><rect x="427.03" y="246.77" width="14.27" height="132.85" transform="translate(868.34 626.39) rotate(180)" style="fill:#e6e6e6"></rect><rect x="273.64" y="246.77" width="153.39" height="132.85" transform="translate(700.68 626.39) rotate(180)" style="fill:#f0f0f0"></rect><path d="M360.56,247.07h-2.81V225.19a9.93,9.93,0,0,0-19.86,0h-2.81a12.74,12.74,0,0,1,25.48,0Z" style="fill:#e6e6e6"></path><path d="M372.28,239.05h0a5.52,5.52,0,0,0-5.37,4.26l-.88,3.76h12.5l-.87-3.76A5.53,5.53,0,0,0,372.28,239.05Z" style="fill:#e6e6e6"></path><polygon points="420.8 379.62 412.44 379.62 285.64 379.62 285.64 382.4 412.44 382.4 420.8 382.4 429.32 382.4 429.32 379.62 420.8 379.62" style="fill:#e0e0e0"></polygon><rect x="281.56" y="255.08" width="137.55" height="32.06" transform="translate(700.68 542.22) rotate(180)" style="fill:#fafafa;opacity:0.5"></rect><rect x="305.14" y="77.27" width="117.86" height="127.47" transform="translate(728.14 282.01) rotate(180)" style="fill:#e6e6e6"></rect><rect x="298.78" y="77.27" width="123.02" height="127.47" transform="translate(720.58 282.01) rotate(180)" style="fill:#f0f0f0"></rect><rect x="301.35" y="85.17" width="117.88" height="111.66" transform="translate(501.29 -219.29) rotate(90)" style="fill:#fff"></rect><polygon points="392.23 199.94 369.8 82.06 351.12 82.06 373.55 199.94 392.23 199.94" style="fill:#f5f5f5"></polygon><polygon points="407.87 199.94 385.43 82.06 377.26 82.06 399.7 199.94 407.87 199.94" style="fill:#f5f5f5"></polygon><rect x="245.87" y="140.65" width="117.88" height="0.7" transform="translate(445.81 -163.81) rotate(90)" style="fill:#e6e6e6"></rect><rect x="79.46" y="97.72" width="129.97" height="116.82" transform="translate(288.89 312.26) rotate(180)" style="fill:#e6e6e6"></rect><rect x="73.01" y="97.72" width="135.33" height="116.82" transform="translate(281.35 312.26) rotate(180)" style="fill:#f5f5f5"></rect><rect x="87.42" y="93.62" width="106.51" height="125.02" rx="4.06" transform="translate(296.81 15.46) rotate(90)" style="fill:#fff"></rect><path d="M161.1,176.77h0a4.77,4.77,0,0,0,0-6.74L126.56,135.5a4.76,4.76,0,0,0-6.73,0h0a4.76,4.76,0,0,0,0,6.73l34.54,34.54A4.77,4.77,0,0,0,161.1,176.77Z" style="fill:#f5f5f5"></path><path d="M178.07,159.79h0a4.76,4.76,0,0,0,0-6.73l-34.54-34.53a4.76,4.76,0,0,0-6.73,0h0a4.76,4.76,0,0,0,0,6.73l34.54,34.53A4.76,4.76,0,0,0,178.07,159.79Z" style="fill:#f5f5f5"></path><path d="M144.13,193.74h0a4.77,4.77,0,0,0,0-6.73l-34.54-34.54a4.76,4.76,0,0,0-6.73,0h0a4.76,4.76,0,0,0,0,6.73l34.53,34.54A4.77,4.77,0,0,0,144.13,193.74Z" style="fill:#f5f5f5"></path></g><g id="freepik--Shadow--inject-105"><ellipse id="freepik--path--inject-105" cx="250" cy="416.24" rx="193.89" ry="11.32" style="fill:#f5f5f5"></ellipse></g><g id="freepik--Flower--inject-105"><path d="M390.51,224.74c.06-1.77-11-5.73-21.3,7C373.29,233.37,390.45,235.45,390.51,224.74Z" style="fill:#263238"></path><rect x="388.95" y="224.89" width="1.23" height="172.98" style="fill:#263238"></rect><path d="M403.66,382.33h-28.2a1.58,1.58,0,0,0-1.53,2L381,410.53a1.59,1.59,0,0,0,1.53,1.17h14.1a1.57,1.57,0,0,0,1.52-1.17l7.06-26.21A1.58,1.58,0,0,0,403.66,382.33Z" style="fill:#407BFF"></path><path d="M389.56,224.89c.83-3.13,22.36-4.17,33.62,23.61C415.15,249.21,384,243.71,389.56,224.89Z" style="fill:#407BFF"></path><path d="M387.32,260.06c.64-1.85,13.7-1.57,19.34,15.71C401.77,275.86,383.13,271.21,387.32,260.06Z" style="fill:#407BFF"></path><path d="M390.33,293.17c-.34-1-7.42-.86-10.47,8.51C382.5,301.72,392.6,299.2,390.33,293.17Z" style="fill:#407BFF"></path></g><g id="freepik--Towel--inject-105"><path d="M68.47,255.92h92.61a1.77,1.77,0,0,0,1.77-1.77h0a1.76,1.76,0,0,0-1.77-1.76H68.47a1.77,1.77,0,0,0-1.77,1.76h0A1.77,1.77,0,0,0,68.47,255.92Z" style="fill:#263238"></path><rect x="131.16" y="243.87" width="6.95" height="0.92" style="fill:#407BFF"></rect><rect x="102.65" y="243.87" width="21.91" height="0.92" style="fill:#407BFF"></rect><rect x="80.48" y="247.51" width="68.44" height="99.05" rx="4.59" transform="translate(229.39 594.08) rotate(180)" style="fill:#407BFF"></rect><g style="opacity:0.7000000000000001"><path d="M80.48,280.73c22.81-14,45.62,14,68.44,0v-14c-22.82,14-45.63-14-68.44,0Z" style="fill:#fff"></path></g><g style="opacity:0.7000000000000001"><path d="M80.48,323.14c22.81-14,45.62,14,68.44,0v-14c-22.82,14-45.63-14-68.44,0Z" style="fill:#fff"></path></g></g><g id="freepik--Bathtub--inject-105"><path d="M395.11,311.1,374.3,367.23a44,44,0,0,1-41.23,28.69H193.6a44,44,0,0,1-41.24-28.69l-20.8-56.13Z" style="fill:#407BFF"></path><path d="M395.11,311.1,374.3,367.23a44,44,0,0,1-41.23,28.69H193.6a44,44,0,0,1-41.24-28.69l-20.8-56.13Z" style="fill:#fff;opacity:0.4"></path><path d="M121.56,311.1H405.11a2.9,2.9,0,0,0,2.89-2.89h0a2.9,2.9,0,0,0-2.89-2.88H121.56a2.9,2.9,0,0,0-2.89,2.88h0A2.9,2.9,0,0,0,121.56,311.1Z" style="fill:#fff"></path><path d="M405.11,311.6H121.56a3.39,3.39,0,1,1,0-6.77H405.11a3.39,3.39,0,1,1,0,6.77Zm-283.55-5.77a2.39,2.39,0,1,0,0,4.77H405.11a2.39,2.39,0,1,0,0-4.77Z" style="fill:#407BFF"></path><rect x="250" y="299.33" width="24.83" height="5.99" rx="2.25" style="fill:#407BFF"></rect><path d="M201.78,305.33h-3V282A13.59,13.59,0,0,1,226,282h-3a10.59,10.59,0,0,0-21.17,0Z" style="fill:#407BFF"></path><path d="M186.28,296.78h0a5.88,5.88,0,0,1,5.73,4.54l.94,4H179.61l.94-4A5.88,5.88,0,0,1,186.28,296.78Z" style="fill:#407BFF"></path><path d="M340.29,411.75c-6.93,0-8.42-5.68-9.51-9.83-.55-2.07-1.06-4-2-4.86-1.13-1-3.92-.26-5.09.24a1.5,1.5,0,0,1-1.19-2.76c.54-.23,5.39-2.22,8.24.25,1.67,1.44,2.3,3.83,3,6.37,1.24,4.72,2.31,7.59,6.61,7.59a1.5,1.5,0,0,1,0,3Z" style="fill:#407BFF"></path><path d="M184.81,411.75a1.5,1.5,0,1,1,0-3c4.3,0,5.36-2.87,6.61-7.59.66-2.54,1.29-4.93,3-6.37,2.85-2.47,7.7-.48,8.24-.25a1.51,1.51,0,0,1,.79,2,1.5,1.5,0,0,1-2,.78c-1.18-.5-4-1.22-5.1-.24-1,.83-1.48,2.79-2,4.86C193.23,406.07,191.73,411.75,184.81,411.75Z" style="fill:#407BFF"></path></g><g id="freepik--Character--inject-105"><path d="M306.67,112.76c-7.75,3.57,4.44,16.15-2.12,22.24s-7.19,9.95-4,17.15S284,165.06,296.42,174.9s57.87,33.31,59.41.91c.77-16.07-13.19-15.54-8.46-28.35s-10.66-10.6-6.72-24.6S303.31,97.38,306.67,112.76Z" style="fill:#263238"></path><path d="M352.67,403.16c3-6.59,3-8.29,5-11.82,1.76-3,1.8-2.82,4.1-5.51,1.52-1.79-.2-3.84-2.21-4.54-1.56-.55-3.25-1-5.15-1.73l-6,7c1.64,3.34,1.94,10.71,0,15.89C347.08,406.19,351.46,405.8,352.67,403.16Z" style="fill:#263238"></path><path d="M297.21,214.29s-1.88,59.94,0,93.06c-1.39,19.83,50.4,79.47,50.4,79.47,1.26,1,6.57-5.54,6.88-7.26,0,0-21.16-53.38-36.46-73.4,19.13-53,13.94-91.87,13.94-91.87Z" style="fill:#263238"></path><path d="M324,315.18c1.46,14.65,2.52,30.89,3,46.24,10.88,14.25,20.56,25.4,20.56,25.4l.12.07c1-5.3,1.92-11.1,2.73-17.14C344.73,356.19,333.93,331.57,324,315.18Z" style="opacity:0.2"></path><path d="M331.92,214.29H310s4.37,58.5,9.25,88.2C336.88,251.43,331.92,214.29,331.92,214.29Z" style="opacity:0.2"></path><path d="M343.74,384.48c.73.8,2,2.24,2.94,3.34a.85.85,0,0,0,1.2.11,59.43,59.43,0,0,0,7.51-8.09.86.86,0,0,0,0-1l-2.17-3.34a.87.87,0,0,0-1.32-.15l-8.16,7.94A.86.86,0,0,0,343.74,384.48Z" style="fill:#407BFF"></path><path d="M343.74,384.48c.73.8,2,2.24,2.94,3.34a.85.85,0,0,0,1.2.11,59.43,59.43,0,0,0,7.51-8.09.86.86,0,0,0,0-1l-2.17-3.34a.87.87,0,0,0-1.32-.15l-8.16,7.94A.86.86,0,0,0,343.74,384.48Z" style="fill:#263238;opacity:0.30000000000000004"></path><path d="M322.33,416.88c7.38,0,6.86-.11,11-.25,3.57-.13,4.38.31,7.23.25,2.39-.05,2.51-2.33,2-5-.24-1.32-.67-2.93-1-5.06H330.39a12.48,12.48,0,0,1-9.22,5.65C317.15,413,319.39,416.88,322.33,416.88Z" style="fill:#263238"></path><path d="M307.62,214.29S319.21,278.1,323.46,307c4.46,30.37,10,79.67,6.93,99.84,1.64,1,7.71,1.07,11.21,0,0,0,17.71-69.26,2.91-98.5,8.42-71.07-4-74.78-7.47-94.07Z" style="fill:#263238"></path><path d="M303.26,218c-2.7,0-4.86-.47-5.1-1.32a.25.25,0,0,1,.48-.14c.24.83,5.26,1.51,10.3.3h.11c4.05.74,16.58.79,27-.81a.25.25,0,1,1,.08.49c-10.43,1.61-23,1.56-27.12.82A25.51,25.51,0,0,1,303.26,218Z" style="fill:#fff"></path><path d="M309.05,220.89c-.28,0-.57-.32-1-1.07a3.49,3.49,0,0,1-.21-3.32.65.65,0,0,1,.63-.34c.31,0,.55.31.74.82a.26.26,0,0,1-.15.32.24.24,0,0,1-.32-.15c-.14-.38-.28-.49-.33-.5a.31.31,0,0,0-.16.13,3.08,3.08,0,0,0,.24,2.8,3.32,3.32,0,0,0,.49.75,3.62,3.62,0,0,0,0-.85.25.25,0,0,1,.22-.27.26.26,0,0,1,.27.23c.06.59,0,1.32-.36,1.43A.25.25,0,0,1,309.05,220.89Z" style="fill:#fff"></path><path d="M309.91,220.54c-.29,0-.53-.36-.73-.72a3.48,3.48,0,0,1-.2-3.32.64.64,0,0,1,.63-.34c.3,0,.55.31.73.82a.13.13,0,0,1,0,.06c.34,3.28-.16,3.43-.32,3.49Zm-.37-3.89s-.09,0-.15.13a3,3,0,0,0,.24,2.8,1.64,1.64,0,0,0,.25.4,11.22,11.22,0,0,0,0-2.86c-.13-.35-.26-.46-.32-.47Z" style="fill:#fff"></path><path d="M308.9,227a.28.28,0,0,1-.23-.15,16.35,16.35,0,0,1,0-8.27.25.25,0,1,1,.48.13,15.68,15.68,0,0,0,0,7.94.25.25,0,0,1-.12.33Z" style="fill:#fff"></path><path d="M311.9,226.57a.27.27,0,0,1-.17-.06c-1-.86-2.55-4.74-3-7.87a.25.25,0,0,1,.49-.07c.43,3.11,2,6.86,2.83,7.57a.24.24,0,0,1,0,.35A.25.25,0,0,1,311.9,226.57Z" style="fill:#fff"></path><path d="M329.93,402.66a30.57,30.57,0,0,1-.77,4.15.79.79,0,0,0,.63,1c4,.65,10.07-.3,12-.64a1,1,0,0,0,.76-.71l1-3.88a.77.77,0,0,0-.77-1l-11.87.22A1,1,0,0,0,329.93,402.66Z" style="fill:#407BFF"></path><path d="M329.93,402.66a30.57,30.57,0,0,1-.77,4.15.79.79,0,0,0,.63,1c4,.65,10.07-.3,12-.64a1,1,0,0,0,.76-.71l1-3.88a.77.77,0,0,0-.77-1l-11.87.22A1,1,0,0,0,329.93,402.66Z" style="fill:#263238;opacity:0.30000000000000004"></path><path d="M308.27,173.84c-2.17,1.85-4.24,3.43-6.45,5s-4.45,3.09-6.83,4.51a65.76,65.76,0,0,1-7.52,4,35.83,35.83,0,0,1-4.33,1.66,21.88,21.88,0,0,1-5.51,1h-.23a5.51,5.51,0,0,1-.71,0,9.34,9.34,0,0,1-2.82-.76,10.66,10.66,0,0,1-1.84-1.05,14.37,14.37,0,0,1-2.36-2.07,29.33,29.33,0,0,1-3-3.86,60.79,60.79,0,0,1-4-7.47c-1.14-2.5-2.15-5-3.06-7.52s-1.73-5.05-2.43-7.7a3.49,3.49,0,0,1,6.33-2.76l0,.06,4.1,6.46c1.38,2.14,2.75,4.27,4.17,6.3a67.78,67.78,0,0,0,4.3,5.7,15.75,15.75,0,0,0,2.07,2.09,2.35,2.35,0,0,0,.64.41s0,0-.13-.12a2.73,2.73,0,0,0-.94-.26h-.94a13.25,13.25,0,0,0,2-.71c.86-.37,1.83-.83,2.8-1.36s2-1.11,2.94-1.74,2-1.25,3-1.93c2-1.36,4-2.77,6-4.23s4-3,5.84-4.4l.11-.08a7,7,0,0,1,8.77,10.85Z" style="fill:#ce7a63"></path><path d="M309.41,158.46c-7.4-1.08-9.85,1.26-18.59,10.06C290,176,296.19,185,296.19,185S317.79,171.38,309.41,158.46Z" style="fill:#407BFF"></path><path d="M295,172.31c-.12,3.92.27,8.65,1.15,18,.59,7.9-1.38,22.91,1.11,24H337c.8-11.31.51-19.09,7.66-44.34a9.29,9.29,0,0,0-7.94-12.07c-1.58-.16-3.26-.3-5-.38a126.88,126.88,0,0,0-18.09,0c-2,.18-4,.43-5.95.7A15,15,0,0,0,295,172.31Z" style="fill:#407BFF"></path><path d="M330.52,137.13c-1.58,5.82-3.51,16.49.27,20.37,0,0-5.51-.83-17.21,6.41-3.39-4.86-.88-6.41-.88-6.41,6.61-1.55,6.8-6.36,6-10.89Z" style="fill:#ce7a63"></path><path d="M316,162.45c3.85.55,5.06,6.37,5.06,6.37s9.26-6.55,12.19-11.16a38.4,38.4,0,0,1-3.38-2.15S318.29,160.23,316,162.45Z" style="fill:#fff"></path><path d="M312.37,161.83s-3.06.66-4.59,4.92c-.88-8.49,3.14-9.27,3.14-9.27a4.93,4.93,0,0,1,3.48-.5A4.13,4.13,0,0,0,312.37,161.83Z" style="fill:#fff"></path><path d="M325.7,141l-7,5.61a18.48,18.48,0,0,1,.32,3.21c2.51-.36,6.12-3.08,6.57-5.68A8.54,8.54,0,0,0,325.7,141Z" style="opacity:0.2"></path><path d="M332.45,124.65c.09,9.56.33,13.59-4.06,19-6.59,8.22-18.16,6.85-21.06-2.34-2.61-8.27-2.32-22.52,6.58-27.44A12.25,12.25,0,0,1,332.45,124.65Z" style="fill:#ce7a63"></path><path d="M308.86,113.19c12.17,13.56,28.86,23,28.35,11.92S318.79,105.45,308.86,113.19Z" style="fill:#263238"></path><path d="M318.15,129.07c0,.8-.33,1.5-.84,1.57s-.95-.54-1-1.34.33-1.51.84-1.57S318.11,128.27,318.15,129.07Z" style="fill:#263238"></path><path d="M308.63,130.38c0,.8-.34,1.5-.85,1.56s-.95-.53-1-1.34.34-1.5.84-1.56S308.58,129.58,308.63,130.38Z" style="fill:#263238"></path><path d="M307.86,129.06l-1.89-.33S307,130.12,307.86,129.06Z" style="fill:#263238"></path><path d="M311.21,130.79a23.5,23.5,0,0,1-2.23,5.57,3.21,3.21,0,0,0,2.8.07Z" style="fill:#ba4d3c"></path><path d="M314.41,139.68a13.25,13.25,0,0,1-1.34-.1.23.23,0,0,1-.19-.26.28.28,0,0,1,.3-.21,10.59,10.59,0,0,0,6-.91.25.25,0,0,1,.34.08.22.22,0,0,1-.1.31A11.11,11.11,0,0,1,314.41,139.68Z" style="fill:#263238"></path><path d="M335.22,132.28a6.59,6.59,0,0,1-3.7,3.82c-2.13.75-3.28-1.67-2.76-4.22.47-2.3,2.15-5.47,4.32-5.1S336.14,130,335.22,132.28Z" style="fill:#ce7a63"></path><path d="M316.52,124.21a.39.39,0,0,1,.34.1,3.41,3.41,0,0,0,3.15.83.43.43,0,0,1,.56.31.51.51,0,0,1-.34.59,4.28,4.28,0,0,1-4-1,.49.49,0,0,1,0-.67A.52.52,0,0,1,316.52,124.21Z" style="fill:#263238"></path><path d="M308.09,124a.44.44,0,0,1,.31.14.46.46,0,0,1-.06.65,4.86,4.86,0,0,1-4.15,1.31.42.42,0,0,1-.31-.55.5.5,0,0,1,.58-.35,3.91,3.91,0,0,0,3.27-1.07A.52.52,0,0,1,308.09,124Z" style="fill:#263238"></path><path d="M317.38,127.75l-1.89-.33S316.53,128.81,317.38,127.75Z" style="fill:#263238"></path><rect x="301.81" y="187.53" width="21.57" height="8.1" transform="translate(-52.01 153.07) rotate(-25.47)" style="fill:#fff"></rect><rect x="302.28" y="191.47" width="21.57" height="2.21" transform="translate(-52.39 153.37) rotate(-25.47)" style="fill:#407BFF;opacity:0.5"></rect><rect x="321.9" y="180.97" width="8.94" height="8.1" transform="translate(700.58 211.68) rotate(154.53)" style="fill:#fff"></rect><rect x="321.9" y="180.97" width="8.94" height="8.1" transform="translate(700.58 211.68) rotate(154.53)" style="fill:#407BFF;opacity:0.5"></rect><path d="M317,187.43a1,1,0,1,0,.45-1.28A1,1,0,0,0,317,187.43Z" style="fill:#407BFF;opacity:0.2"></path><path d="M314.31,188.7a1,1,0,1,0,.45-1.28A1,1,0,0,0,314.31,188.7Z" style="fill:#407BFF;opacity:0.2"></path><path d="M318.86,188.06l3-.29a3.45,3.45,0,0,1,2.94,1.17l3.43,3.94a6.46,6.46,0,0,1,1.4,5.75l-.3,1.26c-4.88.81-10.74-1.91-10.74-1.91l-1.76-.59a2.88,2.88,0,0,1-1.91-3.62l1.12-3.49A3.32,3.32,0,0,1,318.86,188.06Z" style="fill:#ce7a63"></path><path d="M252.18,150.49l-.2,3a3.45,3.45,0,0,0,1.27,2.9l4,3.3a6.44,6.44,0,0,0,5.79,1.23l1.25-.35c.65-4.89-2.24-10.67-2.24-10.67l-.65-1.74a2.87,2.87,0,0,0-3.67-1.79l-3.46,1.23A3.29,3.29,0,0,0,252.18,150.49Z" style="fill:#ce7a63"></path><path d="M273.72,147.78l-.11-.35a.81.81,0,0,0-.89-.56,90.52,90.52,0,0,0-23.9,7.33.8.8,0,0,0-.42,1l.11.35a.8.8,0,0,0,.89.56,90.2,90.2,0,0,0,23.89-7.33A.81.81,0,0,0,273.72,147.78Z" style="fill:#407BFF"></path><path d="M273.72,147.78l-.11-.35a.81.81,0,0,0-.89-.56,90.52,90.52,0,0,0-23.9,7.33.8.8,0,0,0-.42,1l.11.35a.8.8,0,0,0,.89.56,90.2,90.2,0,0,0,23.89-7.33A.81.81,0,0,0,273.72,147.78Z" style="fill:#fff;opacity:0.7000000000000001"></path><path d="M265.88,151.8l-1-3.31c2.58-.66,5.19-1.19,7.85-1.62a.81.81,0,0,1,.89.56l.1.35a.79.79,0,0,1-.42,1C270.86,149.88,268.39,150.89,265.88,151.8Z" style="fill:#407BFF;opacity:0.7000000000000001"></path><path d="M348.64,168.57c.3.76.51,1.35.75,2s.43,1.28.64,1.91c.42,1.28.78,2.57,1.13,3.85.69,2.58,1.28,5.18,1.73,7.83a75.92,75.92,0,0,1,1,8,66.62,66.62,0,0,1,.14,8.25v.39a1.45,1.45,0,0,1,0,.3,8.12,8.12,0,0,1-1.09,3.16,7.76,7.76,0,0,1-2.46,2.48,8.37,8.37,0,0,1-4.06,1.28,14.45,14.45,0,0,1-4.41-.47,33.82,33.82,0,0,1-6.05-2.23,58.87,58.87,0,0,1-5.22-2.81,54.61,54.61,0,0,1-4.87-3.28,3.53,3.53,0,0,1,2.87-6.25l.14,0c1.74.37,3.54.83,5.29,1.23s3.48.81,5.16,1.13a32.22,32.22,0,0,0,4.66.67c.62,0,1.26,0,1.12-.13s-.43-.11-1.43.46a4.47,4.47,0,0,0-1.49,1.51,4.6,4.6,0,0,0-.68,1.84l0,.69c-.17-2.24-.41-4.48-.77-6.75s-.8-4.55-1.33-6.82-1.1-4.55-1.75-6.8c-.31-1.13-.66-2.25-1-3.37l-1-3.19-.1-.32a7,7,0,0,1,13.15-4.63Z" style="fill:#ce7a63"></path><path d="M337.13,157.92c6.48,1,9.08,3,14.38,16-2.41,4.86-13.67,9.51-13.67,9.51S329,167.41,337.13,157.92Z" style="fill:#407BFF"></path></g><g id="freepik--pregnancy-test--inject-105"><path d="M236.86,146.82l-14.11-14.24a5.94,5.94,0,0,1-1.6-5.34,58.81,58.81,0,0,0-6.27-40C200.38,61,165.26,49.62,138.12,62.39a59.06,59.06,0,1,0,73.49,87.32,6,6,0,0,1,5.63-2.55l18.35,2.23A1.52,1.52,0,0,0,236.86,146.82Z" style="fill:#fff"></path><path d="M163.3,175.41a59.62,59.62,0,0,1-52.24-30.78,59.57,59.57,0,0,1,26.85-82.7c27.34-12.86,62.8-1.37,77.41,25.08a59.6,59.6,0,0,1,6.32,40.33,5.47,5.47,0,0,0,1.46,4.89l14.11,14.24a2,2,0,0,1-1.68,3.42l-18.35-2.23A5.48,5.48,0,0,0,212,150a59.54,59.54,0,0,1-48.72,25.41ZM162.09,57.64a55.74,55.74,0,0,0-23.76,5.2,58.56,58.56,0,1,0,72.87,86.59,6.47,6.47,0,0,1,6.1-2.77l18.35,2.24a1,1,0,0,0,1-.57,1,1,0,0,0-.19-1.16l-14.11-14.23a6.46,6.46,0,0,1-1.73-5.8,58.67,58.67,0,0,0-6.21-39.65C204.09,68.75,183.08,57.64,162.09,57.64Z" style="fill:#407BFF"></path><rect x="170.74" y="80.87" width="6.75" height="1" transform="translate(79.4 248.6) rotate(-85.52)" style="fill:#407BFF"></rect><rect x="176.49" y="82.63" width="3.38" height="1" transform="translate(43.39 226.27) rotate(-71.73)" style="fill:#407BFF"></rect><rect x="187.51" y="137.65" width="1" height="3.38" transform="translate(-45.96 143.76) rotate(-37.63)" style="fill:#407BFF"></rect><path d="M130,146.84A15,15,0,0,1,115.37,135l-3.68-17.4A14.92,14.92,0,0,1,123.2,99.94l70.43-14.88a14.49,14.49,0,0,1,3.07-.32,15,15,0,0,1,14.61,11.83L215,114a14.93,14.93,0,0,1-11.51,17.67L133,146.52A14.42,14.42,0,0,1,130,146.84Z" style="fill:#fff"></path><path d="M130,147.34a15.48,15.48,0,0,1-15.09-12.22l-3.68-17.41a15.42,15.42,0,0,1,11.9-18.26l70.43-14.88A15.43,15.43,0,0,1,211.8,96.46l3.67,17.4a15.43,15.43,0,0,1-11.89,18.27L133.14,147A15.37,15.37,0,0,1,130,147.34Zm66.73-62.1a14,14,0,0,0-3,.31L123.3,100.43a14.43,14.43,0,0,0-11.12,17.08l3.67,17.4A14.5,14.5,0,0,0,130,146.34a14.2,14.2,0,0,0,3-.31l70.43-14.88a14.43,14.43,0,0,0,11.13-17.08l-3.68-17.4A14.48,14.48,0,0,0,196.7,85.24Z" style="fill:#407BFF"></path><rect x="115.43" y="94.98" width="95.82" height="41.61" rx="11.91" transform="translate(-20.4 36.26) rotate(-11.93)" style="fill:#407BFF"></rect><rect x="115.43" y="94.98" width="95.82" height="41.61" rx="11.91" transform="translate(-20.4 36.26) rotate(-11.93)" style="fill:#fff;opacity:0.7000000000000001"></rect><rect x="173.68" y="91.96" width="7.96" height="41.61" transform="translate(-19.47 39.15) rotate(-11.93)" style="fill:#407BFF"></rect></g></svg>